{
    "asset" : {
        "copyright" : "mgsx",
        "generator" : "Khronos glTF Blender I/O v0.9.36",
        "version" : "2.0"
    },
    "scene" : 0,
    "scenes" : [
        {
            "extras" : {
                "glTF2ExportSettings" : {
                    "export_apply" : 0,
                    "export_colors" : 1,
                    "export_copyright" : "mgsx",
                    "export_extras" : 1,
                    "export_format" : "GLTF_SEPARATE",
                    "export_morph_normal" : 1,
                    "export_morph_tangent" : 1,
                    "export_tangents" : 1,
                    "export_texcoords" : 1
                }
            },
            "name" : "Scene",
            "nodes" : [
                0
            ]
        }
    ],
    "nodes" : [
        {
            "mesh" : 0,
            "name" : "Ship"
        }
    ],
    "materials" : [
        {
            "doubleSided" : true,
            "name" : "Material",
            "pbrMetallicRoughness" : {
                "baseColorFactor" : [
                    0.3825945556163788,
                    0.3825945556163788,
                    0.3825945556163788,
                    1
                ],
                "metallicFactor" : 0.25,
                "roughnessFactor" : 0.30454546213150024
            }
        }
    ],
    "meshes" : [
        {
            "extras" : {
                "targetNames" : [
                    "Thin",
                    "Smooth",
                    "Ship",
                    "Head"
                ]
            },
            "name" : "Cube",
            "primitives" : [
                {
                    "attributes" : {
                        "POSITION" : 0,
                        "NORMAL" : 1,
                        "TANGENT" : 2,
                        "TEXCOORD_0" : 3
                    },
                    "indices" : 4,
                    "material" : 0,
                    "targets" : [
                        {
                            "POSITION" : 5,
                            "NORMAL" : 6,
                            "TANGENT" : 7
                        },
                        {
                            "POSITION" : 8,
                            "NORMAL" : 9,
                            "TANGENT" : 10
                        },
                        {
                            "POSITION" : 11,
                            "NORMAL" : 12,
                            "TANGENT" : 13
                        },
                        {
                            "POSITION" : 14,
                            "NORMAL" : 15,
                            "TANGENT" : 16
                        }
                    ]
                }
            ],
            "weights" : [
                1,
                1,
                1,
                1
            ]
        }
    ],
    "accessors" : [
        {
            "bufferView" : 0,
            "componentType" : 5126,
            "count" : 216,
            "max" : [
                1,
                1,
                1
            ],
            "min" : [
                -1,
                -1,
                -1
            ],
            "type" : "VEC3"
        },
        {
            "bufferView" : 1,
            "componentType" : 5126,
            "count" : 216,
            "type" : "VEC3"
        },
        {
            "bufferView" : 2,
            "componentType" : 5126,
            "count" : 216,
            "type" : "VEC4"
        },
        {
            "bufferView" : 3,
            "componentType" : 5126,
            "count" : 216,
            "type" : "VEC2"
        },
        {
            "bufferView" : 4,
            "componentType" : 5123,
            "count" : 324,
            "type" : "SCALAR"
        },
        {
            "bufferView" : 5,
            "componentType" : 5126,
            "count" : 216,
            "max" : [
                0.0687679648399353,
                0.3009107708930969,
                1.4606359004974365
            ],
            "min" : [
                -0.0687679648399353,
                -0.3009107708930969,
                -1.4606359004974365
            ],
            "type" : "VEC3"
        },
        {
            "bufferView" : 6,
            "componentType" : 5126,
            "count" : 216,
            "type" : "VEC3"
        },
        {
            "bufferView" : 7,
            "componentType" : 5126,
            "count" : 216,
            "type" : "VEC3"
        },
        {
            "bufferView" : 8,
            "componentType" : 5126,
            "count" : 216,
            "max" : [
                0.2712860107421875,
                0.2712860107421875,
                0.2712860107421875
            ],
            "min" : [
                -0.2712860107421875,
                -0.2712860107421875,
                -0.2712860107421875
            ],
            "type" : "VEC3"
        },
        {
            "bufferView" : 9,
            "componentType" : 5126,
            "count" : 216,
            "type" : "VEC3"
        },
        {
            "bufferView" : 10,
            "componentType" : 5126,
            "count" : 216,
            "type" : "VEC3"
        },
        {
            "bufferView" : 11,
            "componentType" : 5126,
            "count" : 216,
            "max" : [
                1.620537519454956,
                0.44503068923950195,
                1.2003297805786133
            ],
            "min" : [
                -1.620537519454956,
                -0.631838321685791,
                -1.5504729747772217
            ],
            "type" : "VEC3"
        },
        {
            "bufferView" : 12,
            "componentType" : 5126,
            "count" : 216,
            "type" : "VEC3"
        },
        {
            "bufferView" : 13,
            "componentType" : 5126,
            "count" : 216,
            "type" : "VEC3"
        },
        {
            "bufferView" : 14,
            "componentType" : 5126,
            "count" : 216,
            "max" : [
                0.6707624197006226,
                0.3685559034347534,
                0.6195642948150635
            ],
            "min" : [
                -0.6834282875061035,
                -0.7681806087493896,
                -0.3871818780899048
            ],
            "type" : "VEC3"
        },
        {
            "bufferView" : 15,
            "componentType" : 5126,
            "count" : 216,
            "type" : "VEC3"
        },
        {
            "bufferView" : 16,
            "componentType" : 5126,
            "count" : 216,
            "type" : "VEC3"
        }
    ],
    "bufferViews" : [
        {
            "buffer" : 0,
            "byteLength" : 2592,
            "byteOffset" : 0
        },
        {
            "buffer" : 0,
            "byteLength" : 2592,
            "byteOffset" : 2592
        },
        {
            "buffer" : 0,
            "byteLength" : 3456,
            "byteOffset" : 5184
        },
        {
            "buffer" : 0,
            "byteLength" : 1728,
            "byteOffset" : 8640
        },
        {
            "buffer" : 0,
            "byteLength" : 648,
            "byteOffset" : 10368
        },
        {
            "buffer" : 0,
            "byteLength" : 2592,
            "byteOffset" : 11016
        },
        {
            "buffer" : 0,
            "byteLength" : 2592,
            "byteOffset" : 13608
        },
        {
            "buffer" : 0,
            "byteLength" : 2592,
            "byteOffset" : 16200
        },
        {
            "buffer" : 0,
            "byteLength" : 2592,
            "byteOffset" : 18792
        },
        {
            "buffer" : 0,
            "byteLength" : 2592,
            "byteOffset" : 21384
        },
        {
            "buffer" : 0,
            "byteLength" : 2592,
            "byteOffset" : 23976
        },
        {
            "buffer" : 0,
            "byteLength" : 2592,
            "byteOffset" : 26568
        },
        {
            "buffer" : 0,
            "byteLength" : 2592,
            "byteOffset" : 29160
        },
        {
            "buffer" : 0,
            "byteLength" : 2592,
            "byteOffset" : 31752
        },
        {
            "buffer" : 0,
            "byteLength" : 2592,
            "byteOffset" : 34344
        },
        {
            "buffer" : 0,
            "byteLength" : 2592,
            "byteOffset" : 36936
        },
        {
            "buffer" : 0,
            "byteLength" : 2592,
            "byteOffset" : 39528
        }
    ],
    "buffers" : [
        {
            "byteLength" : 42120,
            "uri" : "morphing.bin"
        }
    ]
}
