{
    "asset" : {
        "copyright" : "mgsx",
        "generator" : "Khronos glTF Blender I/O v0.9.36",
        "version" : "2.0"
    },
    "scene" : 0,
    "scenes" : [
        {
            "name" : "Scene",
            "nodes" : [
                0,
                1,
                2,
                3
            ]
        }
    ],
    "nodes" : [
        {
            "mesh" : 0,
            "name" : "Cube",
            "translation" : [
                2.3766028881073,
                0,
                0
            ]
        },
        {
            "mesh" : 1,
            "name" : "Cube.001",
            "translation" : [
                0.1387796401977539,
                0,
                0
            ]
        },
        {
            "mesh" : 2,
            "name" : "Cube.002",
            "translation" : [
                -1.8677706718444824,
                0,
                0
            ]
        },
        {
            "mesh" : 3,
            "name" : "Cube.003",
            "translation" : [
                -3.9919939041137695,
                0,
                0
            ]
        }
    ],
    "materials" : [
        {
            "doubleSided" : true,
            "name" : "Material",
            "pbrMetallicRoughness" : {
                "baseColorFactor" : [
                    0.800000011920929,
                    0.800000011920929,
                    0.800000011920929,
                    1
                ],
                "metallicFactor" : 0,
                "roughnessFactor" : 0.4000000059604645
            }
        }
    ],
    "meshes" : [
        {
            "name" : "Cube",
            "primitives" : [
                {
                    "attributes" : {
                        "POSITION" : 0,
                        "NORMAL" : 1,
                        "TEXCOORD_0" : 2
                    },
                    "indices" : 3,
                    "material" : 0
                }
            ]
        },
        {
            "name" : "Cube.004",
            "primitives" : [
                {
                    "attributes" : {
                        "POSITION" : 4,
                        "NORMAL" : 5,
                        "TEXCOORD_0" : 6
                    },
                    "indices" : 3,
                    "material" : 0
                }
            ]
        },
        {
            "name" : "Cube.005",
            "primitives" : [
                {
                    "attributes" : {
                        "POSITION" : 7,
                        "NORMAL" : 8,
                        "TEXCOORD_0" : 9
                    },
                    "indices" : 3,
                    "material" : 0
                }
            ]
        },
        {
            "name" : "Cube.006",
            "primitives" : [
                {
                    "attributes" : {
                        "POSITION" : 10,
                        "NORMAL" : 11,
                        "TEXCOORD_0" : 12
                    },
                    "indices" : 3,
                    "material" : 0
                }
            ]
        }
    ],
    "accessors" : [
        {
            "bufferView" : 0,
            "componentType" : 5126,
            "count" : 24576,
            "max" : [
                0.8395062685012817,
                0.8395062685012817,
                0.8395062685012817
            ],
            "min" : [
                -0.8395062685012817,
                -0.8395062685012817,
                -0.8395062685012817
            ],
            "type" : "VEC3"
        },
        {
            "bufferView" : 1,
            "componentType" : 5126,
            "count" : 24576,
            "type" : "VEC3"
        },
        {
            "bufferView" : 2,
            "componentType" : 5126,
            "count" : 24576,
            "type" : "VEC2"
        },
        {
            "bufferView" : 3,
            "componentType" : 5123,
            "count" : 36864,
            "type" : "SCALAR"
        },
        {
            "bufferView" : 4,
            "componentType" : 5126,
            "count" : 24576,
            "max" : [
                0.8395062685012817,
                0.8395062685012817,
                0.8395062685012817
            ],
            "min" : [
                -0.8395062685012817,
                -0.8395062685012817,
                -0.8395062685012817
            ],
            "type" : "VEC3"
        },
        {
            "bufferView" : 5,
            "componentType" : 5126,
            "count" : 24576,
            "type" : "VEC3"
        },
        {
            "bufferView" : 6,
            "componentType" : 5126,
            "count" : 24576,
            "type" : "VEC2"
        },
        {
            "bufferView" : 7,
            "componentType" : 5126,
            "count" : 24576,
            "max" : [
                0.8395062685012817,
                0.8395062685012817,
                0.8395062685012817
            ],
            "min" : [
                -0.8395062685012817,
                -0.8395062685012817,
                -0.8395062685012817
            ],
            "type" : "VEC3"
        },
        {
            "bufferView" : 8,
            "componentType" : 5126,
            "count" : 24576,
            "type" : "VEC3"
        },
        {
            "bufferView" : 9,
            "componentType" : 5126,
            "count" : 24576,
            "type" : "VEC2"
        },
        {
            "bufferView" : 10,
            "componentType" : 5126,
            "count" : 24576,
            "max" : [
                0.8395062685012817,
                0.8395062685012817,
                0.8395062685012817
            ],
            "min" : [
                -0.8395062685012817,
                -0.8395062685012817,
                -0.8395062685012817
            ],
            "type" : "VEC3"
        },
        {
            "bufferView" : 11,
            "componentType" : 5126,
            "count" : 24576,
            "type" : "VEC3"
        },
        {
            "bufferView" : 12,
            "componentType" : 5126,
            "count" : 24576,
            "type" : "VEC2"
        }
    ],
    "bufferViews" : [
        {
            "buffer" : 0,
            "byteLength" : 294912,
            "byteOffset" : 0
        },
        {
            "buffer" : 0,
            "byteLength" : 294912,
            "byteOffset" : 294912
        },
        {
            "buffer" : 0,
            "byteLength" : 196608,
            "byteOffset" : 589824
        },
        {
            "buffer" : 0,
            "byteLength" : 73728,
            "byteOffset" : 786432
        },
        {
            "buffer" : 0,
            "byteLength" : 294912,
            "byteOffset" : 860160
        },
        {
            "buffer" : 0,
            "byteLength" : 294912,
            "byteOffset" : 1155072
        },
        {
            "buffer" : 0,
            "byteLength" : 196608,
            "byteOffset" : 1449984
        },
        {
            "buffer" : 0,
            "byteLength" : 294912,
            "byteOffset" : 1646592
        },
        {
            "buffer" : 0,
            "byteLength" : 294912,
            "byteOffset" : 1941504
        },
        {
            "buffer" : 0,
            "byteLength" : 196608,
            "byteOffset" : 2236416
        },
        {
            "buffer" : 0,
            "byteLength" : 294912,
            "byteOffset" : 2433024
        },
        {
            "buffer" : 0,
            "byteLength" : 294912,
            "byteOffset" : 2727936
        },
        {
            "buffer" : 0,
            "byteLength" : 196608,
            "byteOffset" : 3022848
        }
    ],
    "buffers" : [
        {
            "byteLength" : 3219456,
            "uri" : "four-spheres.bin"
        }
    ]
}
